<?xml version="1.0" encoding="UTF-8" standalone="no"?><!DOCTYPE svg PUBLIC "-//W3C//DTD SVG 1.1//EN" "http://www.w3.org/Graphics/SVG/1.1/DTD/svg11.dtd"><svg xmlns="http://www.w3.org/2000/svg" version="1.1" width="48" height="45"><path stroke-linejoin="round" stroke-linecap="round" stroke-width="2" stroke="rgb(0, 0, 0)" fill="none" d="M 2 9 c 0.02 -0.09 0.21 -3.95 1 -5 c 0.9 -1.2 3.34 -2.69 5 -3 c 3.13 -0.59 7.87 -0.59 11 0 c 1.66 0.31 4.27 1.84 5 3 c 0.62 1 0.23 3.39 0 5 c -0.42 2.97 -0.69 6.47 -2 9 c -3.08 5.93 -7.64 13.02 -12 18 c -2.18 2.49 -9.32 5.15 -9 6 c 0.36 0.96 8.08 2 12 2 c 7.76 0 16.44 -0.96 24 -2 c 1.69 -0.23 3.38 -1.68 5 -2 l 5 0"/></svg>